<?xml version="1.0" encoding="utf-8"?>
<!-- Generator: Adobe Illustrator 17.0.0, SVG Export Plug-In . SVG Version: 6.00 Build 0)  -->
<!DOCTYPE svg PUBLIC "-//W3C//DTD SVG 1.1 Tiny//EN" "http://www.w3.org/Graphics/SVG/1.1/DTD/svg11-tiny.dtd">
<svg version="1.1" baseProfile="tiny" id="Layer_1" xmlns="http://www.w3.org/2000/svg" xmlns:xlink="http://www.w3.org/1999/xlink"
	 x="0px" y="0px" width="24.999px" height="22.988px" viewBox="0 0 24.999 22.988" xml:space="preserve">
<path fill="#646565" d="M22.92,2.149c-2.393-2.391-6.285-2.391-8.677,0L1.59,14.804c-0.025,0.025-0.036,0.057-0.057,0.084
	c-0.83,0.876-1.297,2.01-1.297,3.223c0,1.251,0.488,2.427,1.373,3.312c0.884,0.885,2.06,1.373,3.311,1.373
	c1.251,0,2.429-0.488,3.314-1.373c0.004-0.002,0.004-0.006,0.006-0.01c0.002-0.002,0.004-0.002,0.006-0.004l10.027-10.025
	c0.01-0.008,0.021-0.009,0.027-0.019c1.253-1.253,1.253-3.29,0-4.542c-1.253-1.255-3.289-1.255-4.542,0
	c-0.004,0.004-0.004,0.008-0.008,0.011l0,0l-9.88,9.878c-0.281,0.281-0.281,0.736,0,1.019c0.281,0.281,0.736,0.281,1.017,0
	l9.88-9.88c0.004-0.004,0.006-0.008,0.008-0.011l0,0c0.692-0.69,1.817-0.69,2.507,0c0.683,0.683,0.688,1.788,0.023,2.481
	c-0.006,0.004-0.011,0.006-0.015,0.01L7.228,20.392c-0.004,0.002-0.004,0.006-0.006,0.009c-0.002,0.002-0.006,0.002-0.008,0.004
	c-0.612,0.612-1.429,0.951-2.295,0.951s-1.679-0.339-2.291-0.951c-1.266-1.266-1.266-3.324-0.002-4.59
	c0.011-0.009,0.015-0.025,0.025-0.036L15.261,3.168c1.832-1.83,4.81-1.83,6.642,0c1.83,1.83,1.83,4.812,0,6.644L10.076,21.637
	c-0.281,0.281-0.281,0.736,0,1.017c0.281,0.281,0.74,0.281,1.019,0L22.92,10.829C25.314,8.437,25.314,4.541,22.92,2.149z"/>
</svg>
