<?xml version="1.0" encoding="utf-8"?>
<!-- Generator: Adobe Illustrator 17.1.0, SVG Export Plug-In . SVG Version: 6.00 Build 0)  -->
<!DOCTYPE svg PUBLIC "-//W3C//DTD SVG 1.1//EN" "http://www.w3.org/Graphics/SVG/1.1/DTD/svg11.dtd">
<svg version="1.1" id="Layer_1" xmlns="http://www.w3.org/2000/svg" xmlns:xlink="http://www.w3.org/1999/xlink" x="0px" y="0px" width="86.6px" height="25.3px"
	 viewBox="180.5 88.2 93.9 62.9" enable-background="new 180.5 88.2 93.9 62.9" xml:space="preserve">
<g>
	
		<linearGradient id="SVGID_1_" gradientUnits="userSpaceOnUse" x1="152.6" y1="465" x2="152.6" y2="400.335" gradientTransform="matrix(0.9407 0 0 -0.9407 84.0114 526.7932)">
		<stop  offset="0" style="stop-color:#52BBD9"/>
		<stop  offset="1" style="stop-color:#00A0CA"/>
	</linearGradient>
	<path fill="url(#SVGID_1_)" d="M273.5,147.5c0,1.5-1.2,2.6-2.6,2.6h-86.5c-1.5,0-2.6-1.2-2.6-2.6V92c0-1.5,1.2-2.6,2.6-2.6h86.5
		c1.5,0,2.6,1.2,2.6,2.6V147.5z"/>
	<path fill="none" stroke="#0F688D" stroke-width="2" stroke-miterlimit="10" d="M273.5,147.5c0,1.5-1.2,2.6-2.6,2.6h-86.5
		c-1.5,0-2.6-1.2-2.6-2.6V92c0-1.5,1.2-2.6,2.6-2.6h86.5c1.5,0,2.6,1.2,2.6,2.6V147.5z"/>
</g>
<g>
	<path fill="#FFFFFF" d="M263.6,112.4c0,0.8-0.6,1.3-1.3,1.3h-8c-0.8,0-1.3-0.6-1.3-1.3v-6.5c0-0.8,0.6-1.3,1.3-1.3h8
		c0.8,0,1.3,0.6,1.3,1.3V112.4z"/>
</g>
<g>
	<path fill="#B4B4B5" d="M261.9,110.9c0,0.8-0.6,1.3-1.3,1.3h-4.4c-0.8,0-1.3-0.6-1.3-1.3v-3.5c0-0.8,0.6-1.3,1.3-1.3h4.4
		c0.8,0,1.3,0.6,1.3,1.3V110.9z"/>
</g>
<rect x="193.4" y="104.6" fill="none" width="52.1" height="11.2"/>
<text transform="matrix(1 0 0 1 193.4102 113.9897)" fill="#FFFFFF" font-family="'HelveticaNeue-Bold'" font-size="13.1698">CREDIT</text>
<rect x="193.2" y="136.7" fill="none" width="71.3" height="6.1"/>
<text transform="matrix(1 0 0 1 193.2466 140.7217)" fill="#FFFFFF" font-family="'HelveticaNeue'" font-size="5.6442">9812  5415  5616  5453</text>
<rect x="193.4" y="126.6" fill="none" width="71.3" height="6.1"/>
<text transform="matrix(1 0 0 1 193.4102 130.6489)" fill="#FFFFFF" font-family="'HelveticaNeue'" font-size="5.6442">John Smith</text>
</svg>
