<?xml version="1.0" encoding="utf-8"?>
<!-- Generator: Adobe Illustrator 17.1.0, SVG Export Plug-In . SVG Version: 6.00 Build 0)  -->
<!DOCTYPE svg PUBLIC "-//W3C//DTD SVG 1.1//EN" "http://www.w3.org/Graphics/SVG/1.1/DTD/svg11.dtd">
<svg version="1.1" id="Layer_1" xmlns="http://www.w3.org/2000/svg" xmlns:xlink="http://www.w3.org/1999/xlink" x="0px" y="0px" width="95.1px" height="63.8px"
	 viewBox="0 0 95.1 63.8" enable-background="new 0 0 95.1 63.8" xml:space="preserve">
<g>
	
		<linearGradient id="SVGID_1_" gradientUnits="userSpaceOnUse" x1="-38.6934" y1="558.35" x2="-38.6934" y2="493.685" gradientTransform="matrix(0.9407 0 0 -0.9407 84.0114 526.7932)">
		<stop  offset="0" style="stop-color:#DDE2D0"/>
		<stop  offset="1" style="stop-color:#CBDABD"/>
	</linearGradient>
	<path fill="url(#SVGID_1_)" d="M93.5,59.7c0,1.5-1.2,2.6-2.6,2.6H4.3c-1.5,0-2.6-1.2-2.6-2.6V4.2c0-1.5,1.2-2.6,2.6-2.6h86.5
		c1.5,0,2.6,1.2,2.6,2.6V59.7z"/>
	<path fill="none" stroke="#7A9A62" stroke-width="3" stroke-miterlimit="10" d="M93.5,59.7c0,1.5-1.2,2.6-2.6,2.6H4.3
		c-1.5,0-2.6-1.2-2.6-2.6V4.2c0-1.5,1.2-2.6,2.6-2.6h86.5c1.5,0,2.6,1.2,2.6,2.6V59.7z"/>
</g>
<rect x="61.4" y="8.3" fill="none" width="32.1" height="16.8"/>
<text transform="matrix(1 0 0 1 61.4286 19.2757)" fill="#7A9A62" font-family="'Gotham-Medium'" font-size="15.0512">100</text>
<rect x="10.6" y="2.9" fill="#96AE80" width="34" height="58.1"/>
<path fill="#B5C7A2" d="M41.6,47.4c0-0.1-0.4-3-0.4-3.1c0,0-0.8-1.9-2-2.1s-2.7-0.6-3.4-1.1c-0.4-0.3-1.6-0.8-2.2-0.9
	c-0.3-0.1-0.8-0.8-0.8-1.2c-0.2-0.4-1.2-1-1.5-1.1v-1.5l3.1-0.9l0.8-0.4c0.1,0,0.3-0.7,0.8-0.5c0,0-1-2-1.4-3
	c-0.3-1.1-0.6-2.8-0.6-2.9c0-0.2-0.7-4.7-1-5.5s-0.8-1.8-1.7-2.3c-0.8-0.5-2.1-1.2-3.8-1.3h-0.1h-0.1c-1.8,0.1-3,0.8-3.8,1.3
	c-0.8,0.5-1.3,1.5-1.7,2.3c-0.4,0.8-1,5.4-1,5.5c0,0.2-0.2,1.9-0.5,3c-0.3,1.1-1.4,3-1.4,3c0.6-0.3,0.8,0.5,0.8,0.5s0.8,0.4,0.8,0.4
	l3.1,0.9v1.5c-0.3,0-1.3,0.8-1.5,1.1c-0.2,0.4-0.6,1.1-0.8,1.2c-0.6,0.2-1.8,0.7-2.2,0.9c-0.7,0.5-2.2,0.8-3.4,1.1c-1.2,0.2-2,2-2,2
	c0,0.1-0.4,3.1-0.4,3.2L41.6,47.4L41.6,47.4z"/>
<path fill="#B5C7A2" d="M81,55.6h-9.9V43c0-3.7,3-6.7,6.7-6.7h8v14.5C85.9,53.5,83.7,55.6,81,55.6z"/>
<polygon fill="#E8EDE1" points="79.8,42.1 78.9,42.2 78.5,42.9 78.1,42.1 77.2,42 77.9,41.3 77.8,40.5 78.6,41 79.4,40.6 79.2,41.4 
	"/>
<polygon fill="#E8EDE1" points="82.5,46.4 81.7,46.5 81.2,47.3 80.8,46.4 80,46.2 80.6,45.7 80.5,44.7 81.3,45.2 82.1,44.8 
	81.9,45.8 "/>
<polygon fill="#E8EDE1" points="77.1,46.4 76.1,46.5 75.7,47.3 75.4,46.4 74.4,46.2 75.2,45.7 75,44.7 75.8,45.2 76.6,44.8 
	76.4,45.8 "/>
<polygon fill="#E8EDE1" points="79.6,50.7 78.7,50.8 78.3,51.6 77.9,50.8 77.1,50.6 77.7,49.9 77.6,49.1 78.4,49.5 79.2,49.2 79,50 
	"/>
<polygon fill="#E8EDE1" points="80.7,48.4 80.3,48.5 80.2,48.8 80.1,48.5 79.7,48.4 80,48.1 80,47.8 80.3,48 80.5,47.8 80.5,48.2 
	"/>
</svg>
