<?xml version="1.0" encoding="utf-8"?>
<!-- Generator: Adobe Illustrator 17.0.0, SVG Export Plug-In . SVG Version: 6.00 Build 0)  -->
<!DOCTYPE svg PUBLIC "-//W3C//DTD SVG 1.1 Tiny//EN" "http://www.w3.org/Graphics/SVG/1.1/DTD/svg11-tiny.dtd">
<svg version="1.1" baseProfile="tiny" id="Layer_1" xmlns="http://www.w3.org/2000/svg" xmlns:xlink="http://www.w3.org/1999/xlink"
	 x="0px" y="0px" width="95.086px" height="64.92px" viewBox="0 0 95.086 64.92" xml:space="preserve">
<g>
	<path fill="#FFFFFF" d="M92.705,60.585c0,1.56-1.275,2.835-2.835,2.835H4.335c-1.559,0-2.835-1.275-2.835-2.835V4.334
		C1.5,2.775,2.775,1.5,4.335,1.5H89.87c1.56,0,2.835,1.275,2.835,2.834V60.585z"/>
	<path fill="none" stroke="#797065" stroke-width="3" stroke-miterlimit="10" d="M92.705,60.585c0,1.56-1.275,2.835-2.835,2.835
		H4.335c-1.559,0-2.835-1.275-2.835-2.835V4.334C1.5,2.775,2.775,1.5,4.335,1.5H89.87c1.56,0,2.835,1.275,2.835,2.834V60.585z"/>
</g>
<g>
	<linearGradient id="SVGID_1_" gradientUnits="userSpaceOnUse" x1="47.1026" y1="1.5" x2="47.1026" y2="63.4204">
		<stop  offset="0" style="stop-color:#FFFFFF"/>
		<stop  offset="1" style="stop-color:#FFFFFF"/>
	</linearGradient>
	<path fill="url(#SVGID_1_)" d="M92.705,60.585c0,1.56-1.275,2.835-2.835,2.835H4.335c-1.559,0-2.835-1.275-2.835-2.835V4.334
		C1.5,2.775,2.775,1.5,4.335,1.5H89.87c1.56,0,2.835,1.275,2.835,2.834V60.585z"/>
	<path fill="none" stroke="#797979" stroke-width="0.5" stroke-miterlimit="10" d="M92.705,60.585c0,1.56-1.275,2.835-2.835,2.835
		H4.335c-1.559,0-2.835-1.275-2.835-2.835V4.334C1.5,2.775,2.775,1.5,4.335,1.5H89.87c1.56,0,2.835,1.275,2.835,2.834V60.585z"/>
</g>
<linearGradient id="SVGID_2_" gradientUnits="userSpaceOnUse" x1="47.3584" y1="3.6475" x2="47.3584" y2="61.7271">
	<stop  offset="0" style="stop-color:#FCF4EA"/>
	<stop  offset="1" style="stop-color:#F4E6CE"/>
</linearGradient>
<path fill="url(#SVGID_2_)" d="M91.208,58.892c0,1.56-1.275,2.835-2.834,2.835H6.343c-1.559,0-2.834-1.275-2.834-2.835V6.482
	c0-1.559,1.275-2.834,2.834-2.834h82.031c1.559,0,2.834,1.275,2.834,2.834V58.892z"/>
<rect x="7.392" y="50.314" fill="#888A8C" width="80.07" height="0.215"/>
<rect x="7.392" y="38.389" fill="#888A8C" width="80.07" height="0.217"/>
<rect x="44.144" y="17.38" fill="none" width="50.941" height="4.751"/>
<text transform="matrix(1 0 0 1 44.1438 20.221)" fill="#797A7D" font-family="'HelveticaNeue-Medium'" font-size="4">4-4512-5678-2100</text>
<rect x="7.392" y="45.563" fill="none" width="50.941" height="4.75"/>
<text transform="matrix(1 0 0 1 7.3912 48.4025)" fill="#5E5F5F" font-family="'HelveticaNeue-Medium'" font-size="4">N</text>
<text transform="matrix(1 0 0 1 10.0231 48.4025)" fill="#5E5F5F" font-family="'HelveticaNeue-Medium'" font-size="4">A</text>
<text transform="matrix(1 0 0 1 12.4557 48.4025)" fill="#5E5F5F" font-family="'HelveticaNeue-Medium'" font-size="4">M</text>
<text transform="matrix(1 0 0 1 15.6715 48.4025)" fill="#5E5F5F" font-family="'HelveticaNeue-Medium'" font-size="4">E</text>
<rect x="7.392" y="33.856" fill="none" width="50.941" height="4.75"/>
<text transform="matrix(1 0 0 1 7.3912 36.6967)" fill="#5E5F5F" font-family="'HelveticaNeue-Medium'" font-size="4">A</text>
<text transform="matrix(1 0 0 1 9.8239 36.6967)" fill="#5E5F5F" font-family="'HelveticaNeue-Medium'" font-size="4">M</text>
<text transform="matrix(1 0 0 1 13.0397 36.6967)" fill="#5E5F5F" font-family="'HelveticaNeue-Medium'" font-size="4">O</text>
<text transform="matrix(1 0 0 1 15.7955 36.6967)" fill="#5E5F5F" font-family="'HelveticaNeue-Medium'" font-size="4">U</text>
<text transform="matrix(1 0 0 1 18.3834 36.6967)" fill="#5E5F5F" font-family="'HelveticaNeue-Medium'" font-size="4">N</text>
<text transform="matrix(1 0 0 1 21.0153 36.6967)" fill="#5E5F5F" font-family="'HelveticaNeue-Medium'" font-size="4">T</text>
<rect x="8.546" y="9.4" fill="#FFFFFF" width="32.968" height="18.467"/>
<rect x="44.145" y="11.436" fill="none" width="50.941" height="3.47"/>
<text transform="matrix(1 0 0 1 44.1442 13.5664)" fill="#5E5F5F" font-family="'HelveticaNeue-Light'" font-size="3">A</text>
<text transform="matrix(1 0 0 1 45.944 13.5664)" fill="#5E5F5F" font-family="'HelveticaNeue-Light'" font-size="3">c</text>
<text transform="matrix(1 0 0 1 47.2702 13.5664)" fill="#5E5F5F" font-family="'HelveticaNeue-Light'" font-size="3">c</text>
<text transform="matrix(1 0 0 1 48.5954 13.5664)" fill="#5E5F5F" font-family="'HelveticaNeue-Light'" font-size="3">o</text>
<text transform="matrix(1 0 0 1 50.2428 13.5664)" fill="#5E5F5F" font-family="'HelveticaNeue-Light'" font-size="3">u</text>
<text transform="matrix(1 0 0 1 51.8961 13.5664)" fill="#5E5F5F" font-family="'HelveticaNeue-Light'" font-size="3">n</text>
<text transform="matrix(1 0 0 1 53.5495 13.5664)" fill="#5E5F5F" font-family="'HelveticaNeue-Light'" font-size="3">t</text>
<text transform="matrix(1 0 0 1 54.5426 13.5664)" fill="#5E5F5F" font-family="'HelveticaNeue-Light'" font-size="3"> </text>
<text transform="matrix(1 0 0 1 55.1784 13.5664)" fill="#5E5F5F" font-family="'HelveticaNeue-Light'" font-size="3">n</text>
<text transform="matrix(1 0 0 1 56.8434 13.5664)" fill="#5E5F5F" font-family="'HelveticaNeue-Light'" font-size="3">u</text>
<text transform="matrix(1 0 0 1 58.4967 13.5664)" fill="#5E5F5F" font-family="'HelveticaNeue-Light'" font-size="3">m</text>
<text transform="matrix(1 0 0 1 60.9987 13.5664)" fill="#5E5F5F" font-family="'HelveticaNeue-Light'" font-size="3">b</text>
<text transform="matrix(1 0 0 1 62.7057 13.5664)" fill="#5E5F5F" font-family="'HelveticaNeue-Light'" font-size="3">e</text>
<text transform="matrix(1 0 0 1 64.2086 13.5664)" fill="#5E5F5F" font-family="'HelveticaNeue-Light'" font-size="3">r</text>
</svg>
