<?xml version="1.0" encoding="utf-8"?>
<!-- Generator: Adobe Illustrator 17.1.0, SVG Export Plug-In . SVG Version: 6.00 Build 0)  -->
<!DOCTYPE svg PUBLIC "-//W3C//DTD SVG 1.1//EN" "http://www.w3.org/Graphics/SVG/1.1/DTD/svg11.dtd">
<svg version="1.1" id="Layer_1" xmlns="http://www.w3.org/2000/svg" xmlns:xlink="http://www.w3.org/1999/xlink" x="0px" y="0px" width="22.1px" height="16.1px"
	 viewBox="0 0 22.1 16.1" enable-background="new 0 0 22.1 16.1" xml:space="preserve">
<circle display="none" fill="#FFFFFF" stroke="#EF3B39" stroke-width="1.1936" cx="11" cy="6.6" r="10.5"/>
<path display="none" fill="#EF3B39" d="M15.4,3H6.7C6.2,3,5.8,3.3,5.8,3.8v5.6c0,0.5,0.4,0.9,0.9,0.9h8.7c0.5,0,0.9-0.4,0.9-0.9l0,0
	V3.8C16.2,3.3,15.8,3,15.4,3z M6.7,3.5h8.7c0.2,0,0.3,0.2,0.3,0.3v0.7H6.3V3.8C6.4,3.6,6.5,3.5,6.7,3.5z M15.4,9.8H6.7
	c-0.2,0-0.3-0.1-0.3-0.3V6.3h9.4v3.1C15.7,9.6,15.5,9.8,15.4,9.8z"/>
<g display="none">
	<path display="inline" fill="#969696" d="M13.2,9.8c-1.6,1.6-4.3,1.6-5.9,0c-1.6-1.6-1.6-4.3,0-5.9c1.6-1.6,4.3-1.6,5.9,0
		C14.9,5.5,14.9,8.2,13.2,9.8z M8.3,4.9C7.3,6,7.3,7.7,8.3,8.8c1.1,1.1,2.8,1.1,3.8,0c1.1-1.1,1.1-2.8,0-3.8
		C11.1,3.9,9.4,3.9,8.3,4.9z"/>
</g>
<rect x="12.9" y="6.8" transform="matrix(0.7063 -0.7079 0.7079 0.7063 -2.5569 12.4422)" display="none" fill="#969696" width="1.7" height="4.9"/>
<circle display="none" fill="none" stroke="#969595" stroke-miterlimit="10" cx="11" cy="6.6" r="10.4"/>
<polygon fill="#646565" points="22.1,0 11,16.1 0,0 "/>
</svg>
