<?xml version="1.0" encoding="utf-8"?>
<!-- Generator: Adobe Illustrator 17.0.0, SVG Export Plug-In . SVG Version: 6.00 Build 0)  -->
<!DOCTYPE svg PUBLIC "-//W3C//DTD SVG 1.1 Tiny//EN" "http://www.w3.org/Graphics/SVG/1.1/DTD/svg11-tiny.dtd">
<svg version="1.1" baseProfile="tiny" id="Layer_1" xmlns="http://www.w3.org/2000/svg" xmlns:xlink="http://www.w3.org/1999/xlink"
	 x="0px" y="0px" width="269.942px" height="156.979px" viewBox="0 0 269.942 156.979" xml:space="preserve">
<g>
	<path fill="#424852" d="M173.837,81.068l95.855,67.576c0.093-0.535,0.17-1.066,0.167-1.622l0.084-133.516L173.837,81.068z"/>
	<path fill="#424852" d="M0.083,13.335L0,146.85c0.008,0.56,0.083,1.097,0.171,1.635l95.926-67.463L0.083,13.335z"/>
	<path fill="#424852" d="M116.091,79.627c4.166,2.639,7.639,4.511,10.588,5.661c2.983,1.163,5.38,1.629,7.761,1.631
		c2.441,0.003,4.981-0.491,8.183-1.686c3.138-1.177,6.87-3.067,11.343-5.665L264.958,1.534c-1.463-0.853-3.153-1.383-4.98-1.384
		L10.067,0C8.24,0,6.549,0.524,5.085,1.383L116.091,79.627z"/>
	<path fill="#424852" d="M162.846,88.805l-2.092,1.464l-0.237,0.141c-4.881,2.836-9.218,5.08-13.446,6.669
		c-4.217,1.582-8.39,2.5-12.637,2.494c-4.159,0.005-8.276-0.893-12.37-2.509c-4.108-1.604-8.254-3.892-12.86-6.813l-0.121-0.083
		l-1.989-1.394l-96.802,68.054l249.268,0.151L162.846,88.805z"/>
</g>
</svg>
