<?xml version="1.0" encoding="utf-8"?>
<!-- Generator: Adobe Illustrator 17.0.0, SVG Export Plug-In . SVG Version: 6.00 Build 0)  -->
<!DOCTYPE svg PUBLIC "-//W3C//DTD SVG 1.1 Tiny//EN" "http://www.w3.org/Graphics/SVG/1.1/DTD/svg11-tiny.dtd">
<svg version="1.1" baseProfile="tiny" id="Layer_1" xmlns="http://www.w3.org/2000/svg" xmlns:xlink="http://www.w3.org/1999/xlink"
	 x="0px" y="0px" width="13.11px" height="15.948px" viewBox="0 0 13.11 15.948" xml:space="preserve">
<rect x="0.872" y="0.864" fill="#FFFFFF" width="11.367" height="14.22"/>
<path fill="#FFFFFF" d="M0,15.948V0h13.11v15.948H0z M11.366,14.22V1.729H1.745V14.22H11.366z"/>
<path fill="#646565" d="M12.811,15.653H0.3V0.295h12.512V15.653z M1.444,14.516h10.223V1.433H1.444V14.516z"/>
<path fill="#646565" d="M10.327,3.879c0,0.157-0.128,0.284-0.286,0.284h-6.88c-0.157,0-0.285-0.127-0.285-0.284V3.082
	c0-0.156,0.128-0.284,0.285-0.284h6.88c0.158,0,0.286,0.128,0.286,0.284V3.879z"/>
<path fill="#646565" d="M10.327,6.04c0,0.157-0.128,0.284-0.286,0.284h-6.88c-0.157,0-0.285-0.127-0.285-0.284V5.244
	c0-0.157,0.128-0.285,0.285-0.285h6.88c0.158,0,0.286,0.128,0.286,0.285V6.04z"/>
<path fill="#646565" d="M10.327,8.372c0,0.157-0.128,0.284-0.286,0.284h-6.88c-0.157,0-0.285-0.127-0.285-0.284V7.576
	c0-0.157,0.128-0.284,0.285-0.284h6.88c0.158,0,0.286,0.127,0.286,0.284V8.372z"/>
</svg>
