<?xml version="1.0" encoding="utf-8"?>
<!-- Generator: Adobe Illustrator 17.1.0, SVG Export Plug-In . SVG Version: 6.00 Build 0)  -->
<!DOCTYPE svg PUBLIC "-//W3C//DTD SVG 1.1//EN" "http://www.w3.org/Graphics/SVG/1.1/DTD/svg11.dtd">
<svg version="1.1" id="Layer_1" xmlns="http://www.w3.org/2000/svg" xmlns:xlink="http://www.w3.org/1999/xlink" x="0px" y="0px" width="15.8px" height="15.8px"
	 viewBox="0 0 15.8 15.8" enable-background="new 0 0 15.8 15.8" xml:space="preserve">
<circle display="none" fill="#FFFFFF" stroke="#EF3B39" stroke-width="1.1936" cx="7.8" cy="6.6" r="10.5"/>
<path display="none" fill="#EF3B39" d="M12.1,3H3.4C3,3,2.6,3.3,2.6,3.8v5.6c0,0.5,0.4,0.9,0.9,0.9h8.7c0.5,0,0.9-0.4,0.9-0.9l0,0
	V3.8C13,3.3,12.6,3,12.1,3z M3.4,3.5h8.7c0.2,0,0.3,0.2,0.3,0.3v0.7H3.1V3.8C3.1,3.6,3.3,3.5,3.4,3.5z M12.1,9.7H3.4
	c-0.2,0-0.3-0.1-0.3-0.3V6.3h9.4v3.1C12.5,9.6,12.3,9.7,12.1,9.7z"/>
<g display="none">
	<path display="inline" fill="#969696" d="M10,9.8c-1.6,1.6-4.3,1.6-5.9,0C2.4,8.2,2.4,5.5,4,3.9c1.6-1.6,4.3-1.6,5.9,0
		C11.6,5.5,11.6,8.2,10,9.8z M5.1,4.9C4,6,4,7.7,5.1,8.7c1.1,1.1,2.8,1.1,3.8,0C10,7.7,10,6,8.9,4.9C7.9,3.8,6.1,3.8,5.1,4.9z"/>
</g>
<rect x="9.6" y="6.8" transform="matrix(0.7063 -0.7079 0.7079 0.7063 -3.4996 10.1433)" display="none" fill="#969696" width="1.7" height="4.9"/>
<circle display="none" fill="none" stroke="#969595" stroke-miterlimit="10" cx="7.8" cy="6.6" r="10.4"/>
<polygon display="none" fill="#646565" points="18.8,0 7.8,16.1 -3.2,0 "/>
<circle fill="none" stroke="#646565" stroke-miterlimit="10" cx="7.9" cy="7.9" r="7.4"/>
<g>
	<path fill="#646565" d="M10,4.8l1,1L9,7.9l2,2l-1,1l-2-2L5.9,11l-1-1l2.1-2.1l-2-2l1-1l2,2L10,4.8z"/>
</g>
</svg>
