<?xml version="1.0" encoding="utf-8"?>
<!-- Generator: Adobe Illustrator 17.0.0, SVG Export Plug-In . SVG Version: 6.00 Build 0)  -->
<!DOCTYPE svg PUBLIC "-//W3C//DTD SVG 1.1 Tiny//EN" "http://www.w3.org/Graphics/SVG/1.1/DTD/svg11-tiny.dtd">
<svg version="1.1" baseProfile="tiny" id="Layer_7" xmlns="http://www.w3.org/2000/svg" xmlns:xlink="http://www.w3.org/1999/xlink"
	 x="0px" y="0px" width="105.257px" height="98.861px" viewBox="0 0 105.257 98.861" xml:space="preserve">
<path fill="#DCDCDC" d="M0,78.326c0-0.151,0.021-0.379,0.058-0.68c0.037-0.302,0.264-0.9,0.68-1.789
	c0.415-0.888,0.986-1.78,1.723-2.668c0.737-0.888,1.91-1.96,3.499-3.206c1.588-1.25,3.483-2.367,5.674-3.349
	c0.684-0.379,2.631-1.58,5.849-3.605c3.214-2.025,6.469-3.792,9.76-5.307c3.295-1.512,6.757-2.611,10.387-3.292
	c-2.306-2.647-4.937-8.077-7.886-16.289c-0.872-2.309-1.287-6.374-1.25-12.204c0-0.53-0.037-1.78-0.114-3.747
	c-0.037-1.287-0.078-2.46-0.114-3.52c0-0.529,0.021-1.039,0.058-1.532c0.037-1.437,0.171-2.647,0.399-3.633
	C30.954,4.501,36.836,0,46.371,0c9.463,0,15.308,4.501,17.54,13.508c0.301,1.022,0.473,2.216,0.509,3.576
	c0,0.342,0.02,0.701,0.057,1.079c0,1.136-0.057,2.44-0.171,3.914c-0.11,1.931-0.167,3.218-0.167,3.862
	c0,5.902-0.342,9.971-1.022,12.204c-3.026,7.983-5.694,13.413-8.004,16.289c3.633,0.681,7.096,1.76,10.387,3.234
	c3.291,1.475,6.566,3.234,9.821,5.28c3.255,2.045,5.259,3.274,6.016,3.69c3.405,1.626,6.073,3.422,8.02,5.389
	c1.947,1.972,3.047,3.54,3.275,4.713l0.338,1.588v1.988c0,2.155-0.794,4.114-2.383,5.874c-1.589,1.759-3.654,2.639-6.187,2.639
	H8.456c-2.081,0-4.008-0.852-5.788-2.554C0.888,84.571,0,82.697,0,80.652V78.326z"/>
<g>
	<circle fill-rule="evenodd" fill="#FFFFFF" cx="88.091" cy="82.628" r="14.034"/>
	<path fill-rule="evenodd" fill="#8C8C8C" d="M88.274,94.616c-2.746,0-5.293-0.878-7.373-2.363l17.747-17.747
		c1.486,2.094,2.363,4.628,2.363,7.373C101.012,88.898,95.294,94.616,88.274,94.616z M75.537,81.878
		c0-7.02,5.718-12.737,12.737-12.737c2.746,0,5.278,0.878,7.374,2.363L77.9,89.252C76.415,87.157,75.537,84.624,75.537,81.878z
		 M101.677,71.476l0.113-0.099l-2.999-3l-0.113,0.099c-2.875-2.236-6.482-3.58-10.403-3.58c-9.383,0-16.983,7.6-16.983,16.983
		c0,3.92,1.345,7.529,3.581,10.402l-0.113,0.099l2.999,3.001l0.113-0.099c2.875,2.236,6.482,3.58,10.403,3.58
		c9.383,0,16.983-7.6,16.983-16.983C105.257,77.958,103.913,74.349,101.677,71.476z"/>
</g>
</svg>
