<?xml version="1.0" encoding="utf-8"?>
<!-- Generator: Adobe Illustrator 17.0.0, SVG Export Plug-In . SVG Version: 6.00 Build 0)  -->
<!DOCTYPE svg PUBLIC "-//W3C//DTD SVG 1.1 Tiny//EN" "http://www.w3.org/Graphics/SVG/1.1/DTD/svg11-tiny.dtd">
<svg version="1.1" baseProfile="tiny" id="Layer_1" xmlns="http://www.w3.org/2000/svg" xmlns:xlink="http://www.w3.org/1999/xlink"
	 x="0px" y="0px" width="9.329px" height="6.997px" viewBox="0 0 9.329 6.997" xml:space="preserve">
<path fill-rule="evenodd" fill="#646565" d="M0.583,1.166h0.583V0.875c0-0.161,0.131-0.292,0.291-0.292h0.875
	c0.16,0,0.292,0.131,0.292,0.292v0.291h1.281l0.557-0.891c0.11-0.177,0.3-0.274,0.494-0.274L6.997,0C7.219,0,7.41,0.123,7.51,0.305
	l0.538,0.861h0.698c0.32,0,0.583,0.263,0.583,0.583v4.665c0,0.32-0.263,0.583-0.583,0.583H0.583C0.262,6.997,0,6.734,0,6.414V1.749
	C0,1.429,0.262,1.166,0.583,1.166L0.583,1.166z M5.977,2.624c-0.725,0-1.313,0.587-1.313,1.311s0.588,1.313,1.313,1.313
	S7.289,4.66,7.289,3.935S6.701,2.624,5.977,2.624L5.977,2.624z M1.166,2.041c-0.16,0-0.291,0.131-0.291,0.291l0,0
	c0,0.161,0.131,0.292,0.291,0.292h1.458c0.16,0,0.292-0.131,0.292-0.292l0,0c0-0.16-0.132-0.291-0.292-0.291H1.166L1.166,2.041z
	 M5.977,1.749c-1.207,0-2.187,0.979-2.187,2.187c0,1.208,0.979,2.187,2.187,2.187c1.207,0,2.187-0.979,2.187-2.187
	C8.163,2.728,7.184,1.749,5.977,1.749z"/>
</svg>
