<?xml version="1.0" encoding="utf-8"?>
<!-- Generator: Adobe Illustrator 17.0.0, SVG Export Plug-In . SVG Version: 6.00 Build 0)  -->
<!DOCTYPE svg PUBLIC "-//W3C//DTD SVG 1.1 Tiny//EN" "http://www.w3.org/Graphics/SVG/1.1/DTD/svg11-tiny.dtd">
<svg version="1.1" baseProfile="tiny" id="Layer_1" xmlns="http://www.w3.org/2000/svg" xmlns:xlink="http://www.w3.org/1999/xlink"
	 x="0px" y="0px" width="390.431px" height="107.554px" viewBox="0 0 390.431 107.554" xml:space="preserve">
<path fill="#ED1C24" d="M286.039,104.405V27.358c0-13.35,10.86-24.208,24.208-24.208h52.829c13.346,0,24.206,10.858,24.206,24.208
	v52.841c0,13.347-10.86,24.206-24.206,24.206H286.039z"/>
<path fill="#FFFFFF" d="M363.075,6.3c11.578,0,21.057,9.476,21.057,21.059v52.841c0,11.58-9.479,21.055-21.057,21.055h-40.572
	h-12.256h-21.059V80.199V65.578v-38.22c0-11.582,9.478-21.059,21.059-21.059H363.075 M363.075,0h-52.828
	c-15.086,0-27.358,12.272-27.358,27.358v38.22v14.621v21.055v6.3h6.3h21.059h12.256h40.572c15.084,0,27.355-12.271,27.355-27.354
	V27.358C390.431,12.272,378.159,0,363.075,0"/>
<path fill="#FFFFFF" d="M0,47.212h24.091c6.795,0,12.123,2.007,15.598,5.404c2.857,2.934,4.479,6.949,4.479,11.66v0.154
	c0,8.879-5.328,14.207-12.818,16.37l14.593,20.46H34.669l-13.28-18.84H9.497v18.84H0V47.212z M23.396,74.005
	c6.795,0,11.119-3.551,11.119-9.033v-0.154c0-5.791-4.169-8.957-11.196-8.957H9.497v18.145H23.396z"/>
<path fill="#FFFFFF" d="M313.513,31.132h24.09c6.795,0,12.123,2.008,15.599,5.404c2.857,2.934,4.479,6.95,4.479,11.66v0.155
	c0,8.879-5.327,14.207-12.817,16.37l14.593,20.459h-11.274l-13.279-18.84h-11.893v18.84h-9.496V31.132z M336.908,57.925
	c6.795,0,11.119-3.551,11.119-9.032v-0.155c0-5.791-4.169-8.957-11.196-8.957h-13.822v18.145H336.908z"/>
<path fill="#FFFFFF" d="M50.353,81.032v-0.154c0-11.66,8.261-21.234,19.921-21.234c12.972,0,19.536,10.192,19.536,21.928
	c0,0.85-0.078,1.699-0.155,2.626H59.696c1.004,6.642,5.713,10.347,11.737,10.347c4.555,0,7.798-1.698,11.042-4.864l5.482,4.864
	c-3.861,4.633-9.189,7.645-16.679,7.645C59.464,102.188,50.353,93.618,50.353,81.032 M80.544,78.021
	c-0.618-6.023-4.169-10.733-10.348-10.733c-5.713,0-9.728,4.401-10.578,10.733H80.544z"/>
<path fill="#FFFFFF" d="M95.608,81.108v-0.153c0-11.583,8.958-21.311,21.235-21.311c7.644,0,12.432,2.857,16.292,7.027l-5.868,6.254
	c-2.857-3.012-5.869-5.097-10.502-5.097c-6.794,0-11.813,5.868-11.813,12.973v0.154c0,7.258,5.019,13.05,12.199,13.05
	c4.402,0,7.645-2.01,10.579-5.021l5.637,5.56c-4.015,4.479-8.725,7.645-16.678,7.645C104.566,102.188,95.608,92.692,95.608,81.108"
	/>
<polygon fill="#FFFFFF" points="140.556,44.896 149.9,44.896 149.9,78.562 166.807,60.491 178.159,60.491 161.945,77.094 
	178.699,101.261 167.735,101.261 155.69,83.579 149.9,89.603 149.9,101.261 140.556,101.261 "/>
<path fill="#FFFFFF" d="M179.943,81.108v-0.153c0-11.659,9.267-21.311,21.775-21.311c12.509,0,21.698,9.496,21.698,21.157v0.154
	c0,11.581-9.267,21.233-21.854,21.233C189.133,102.188,179.943,92.692,179.943,81.108 M214.073,81.108v-0.153
	c0-7.181-5.174-13.127-12.51-13.127c-7.489,0-12.275,5.868-12.275,12.973v0.154c0,7.104,5.173,13.05,12.431,13.05
	C209.287,94.005,214.073,88.136,214.073,81.108"/>
<path fill="#FFFFFF" d="M231.531,60.491h9.345v6.255c2.625-3.782,6.408-7.103,12.74-7.103c9.188,0,14.518,6.178,14.518,15.597
	v26.021h-9.345V78.097c0-6.33-3.165-9.959-8.727-9.959c-5.403,0-9.187,3.783-9.187,10.114v23.009h-9.345V60.491z"/>
</svg>
