<?xml version="1.0" encoding="utf-8"?>
<!-- Generator: Adobe Illustrator 17.0.0, SVG Export Plug-In . SVG Version: 6.00 Build 0)  -->
<!DOCTYPE svg PUBLIC "-//W3C//DTD SVG 1.1 Tiny//EN" "http://www.w3.org/Graphics/SVG/1.1/DTD/svg11-tiny.dtd">
<svg version="1.1" baseProfile="tiny" id="Layer_1" xmlns="http://www.w3.org/2000/svg" xmlns:xlink="http://www.w3.org/1999/xlink"
	 x="0px" y="0px" width="17.245px" height="17.245px" viewBox="0 0 17.245 17.245" xml:space="preserve">
<g>
	<path fill="#FFFFFF" d="M10.13,10.13c-1.237,1.237-3.25,1.237-4.487,0c-1.237-1.237-1.237-3.25,0-4.487
		c1.237-1.237,3.25-1.237,4.487,0C11.367,6.88,11.367,8.892,10.13,10.13z M6.439,6.437c-0.799,0.799-0.799,2.099,0,2.898
		c0.799,0.798,2.098,0.798,2.897,0c0.797-0.799,0.797-2.098,0-2.897C8.536,5.64,7.238,5.64,6.439,6.437z"/>
</g>
<rect x="10.067" y="8.809" transform="matrix(0.7063 -0.7079 0.7079 0.7063 -4.4348 10.7247)" fill="#FFFFFF" width="1.283" height="3.798"/>
<circle fill="none" stroke="#969595" stroke-miterlimit="10" cx="8.639" cy="8.64" r="8.026"/>
</svg>
