<?xml version="1.0" encoding="utf-8"?>
<!-- Generator: Adobe Illustrator 17.0.1, SVG Export Plug-In . SVG Version: 6.00 Build 0)  -->
<!DOCTYPE svg PUBLIC "-//W3C//DTD SVG 1.1 Tiny//EN" "http://www.w3.org/Graphics/SVG/1.1/DTD/svg11-tiny.dtd">
<svg version="1.1" baseProfile="tiny" id="Layer_1" xmlns="http://www.w3.org/2000/svg" xmlns:xlink="http://www.w3.org/1999/xlink"
	 x="0px" y="0px" width="91px" height="52px" viewBox="0 0 91 52" xml:space="preserve">
<rect x="2" y="16" fill="#999999" width="24.711" height="4.629"/>
<rect x="2" y="25.724" fill="#999999" width="24.711" height="4.628"/>
<rect x="2" y="35.447" fill="#999999" width="24.711" height="4.629"/>
<path fill="#ED1C24" d="M42.654,48.548V14.203c0-5.951,4.841-10.791,10.791-10.791h23.549c5.949,0,10.79,4.84,10.79,10.791v23.554
	c0,5.95-4.841,10.79-10.79,10.79H42.654z"/>
<path fill="#FFFFFF" d="M76.994,4.816c5.161,0,9.386,4.224,9.386,9.387v23.554c0,5.162-4.225,9.385-9.386,9.385H58.908h-5.463
	h-9.387v-9.386V31.24V14.203c0-5.163,4.225-9.387,9.387-9.387L76.994,4.816 M76.994,2.008H53.445
	c-6.725,0-12.195,5.47-12.195,12.195V31.24v6.517v9.385v2.808h2.808h9.387h5.463h18.085c6.724,0,12.194-5.47,12.194-12.193V14.203
	C89.188,7.479,83.717,2.008,76.994,2.008"/>
<path fill="#FFFFFF" d="M54.901,15.886h10.738c3.029,0,5.404,0.895,6.953,2.409c1.274,1.308,1.997,3.098,1.997,5.198v0.069
	c0,3.958-2.375,6.333-5.713,7.297l6.505,9.12h-5.025l-5.919-8.398h-5.301v8.398h-4.233L54.901,15.886L54.901,15.886z M65.329,27.829
	c3.029,0,4.956-1.583,4.956-4.026v-0.069c0-2.581-1.858-3.993-4.991-3.993h-6.161v8.088L65.329,27.829L65.329,27.829z"/>
</svg>
