<?xml version="1.0" encoding="utf-8"?>
<!-- Generator: Adobe Illustrator 17.0.0, SVG Export Plug-In . SVG Version: 6.00 Build 0)  -->
<!DOCTYPE svg PUBLIC "-//W3C//DTD SVG 1.1 Tiny//EN" "http://www.w3.org/Graphics/SVG/1.1/DTD/svg11-tiny.dtd">
<svg version="1.1" baseProfile="tiny" id="Icons" xmlns="http://www.w3.org/2000/svg" xmlns:xlink="http://www.w3.org/1999/xlink"
	 x="0px" y="0px" width="26px" height="26px" viewBox="0 0 26 26" xml:space="preserve">
<path fill-rule="evenodd" fill="#FFFFFF" d="M13,18.24c-2.96,0-5.37-2.41-5.37-5.37c0-2.96,2.41-5.36,5.37-5.36
	c2.96,0,5.36,2.4,5.36,5.36C18.36,15.83,15.96,18.24,13,18.24z M26,14.7v-3.4h-2.33c-0.22-1.13-0.79-3.04-1.63-4.33l1.67-1.66
	l-2.68-2.67l-1.81,1.59C17.97,3.29,16.96,2.62,14.7,2.3V0h-3.4v2.22c-1.13,0.25-3.07,0.84-4.37,1.71L5.31,2.29L2.64,4.97L4.25,6.8
	c-0.9,1.25-1.54,2.24-1.84,4.5H0v3.4h2.37c0.26,1.13,0.84,2.98,1.69,4.24l-1.77,1.75l2.68,2.67l1.96-1.74
	c1.22,0.88,2.11,1.52,4.37,1.83V26h3.4v-2.48c1.13-0.23,2.95-0.79,4.21-1.61l1.78,1.8l2.67-2.68l-1.71-1.94
	c0.91-1.22,1.57-2.13,1.9-4.39H26z"/>
</svg>
