<?xml version="1.0" encoding="utf-8"?>
<!-- Generator: Adobe Illustrator 17.0.0, SVG Export Plug-In . SVG Version: 6.00 Build 0)  -->
<!DOCTYPE svg PUBLIC "-//W3C//DTD SVG 1.1 Tiny//EN" "http://www.w3.org/Graphics/SVG/1.1/DTD/svg11-tiny.dtd">
<svg version="1.1" baseProfile="tiny" id="icons" xmlns="http://www.w3.org/2000/svg" xmlns:xlink="http://www.w3.org/1999/xlink"
	 x="0px" y="0px" width="19.604px" height="18.089px" viewBox="0 0 19.604 18.089" xml:space="preserve">
<polygon fill="#FFFFFF" points="0.354,0.271 8.825,0.271 13.801,4.8 13.498,17.837 0.354,17.837 "/>
<path fill="#595959" d="M19.52,5.998l-2.428-2.429c-0.113-0.113-0.297-0.113-0.41,0L13.801,6.45V4.8L8.999,0H0.344
	C0.155,0,0,0.155,0,0.344v17.401c0,0.189,0.155,0.344,0.344,0.344h13.112c0.189,0,0.345-0.155,0.345-0.344v-5.618l5.719-5.719
	C19.633,6.294,19.633,6.11,19.52,5.998z M13.248,17.537H0.552V0.552h8.211v4.125c0,0.198,0.163,0.36,0.362,0.36h4.123v1.966
	l-4.702,4.702c-0.021,0.02-0.033,0.045-0.046,0.07c-0.264,0.201-0.471,0.479-0.547,0.777l-0.619,2.464
	c-0.001,0.004-0.001,0.009-0.002,0.014l-0.241,0.959l2.457-0.609l-0.003-0.002l0.981-0.245c0.301-0.075,0.585-0.284,0.794-0.548
	c0.023-0.013,0.046-0.023,0.064-0.042l1.864-1.864V17.537z M10.666,14.234c-0.098,0.096-0.209,0.171-0.315,0.198l-1.406,0.35
	l-0.644-0.641l0.353-1.413c0.027-0.104,0.104-0.214,0.2-0.307L10.666,14.234z"/>
</svg>
