<?xml version="1.0" encoding="utf-8"?>
<!-- Generator: Adobe Illustrator 17.1.0, SVG Export Plug-In . SVG Version: 6.00 Build 0)  -->
<!DOCTYPE svg PUBLIC "-//W3C//DTD SVG 1.1//EN" "http://www.w3.org/Graphics/SVG/1.1/DTD/svg11.dtd">
<svg version="1.1" id="Layer_1" xmlns="http://www.w3.org/2000/svg" xmlns:xlink="http://www.w3.org/1999/xlink" x="0px" y="0px" width="246.6px" height="147px"
	 viewBox="342.2 208.8 95.6 61.8" enable-background="new 342.2 208.8 95.6 61.8" xml:space="preserve">
<g>
	<path fill="#FFFFFF" d="M435.9,266.2c0,1.5-1.2,2.6-2.6,2.6h-86.5c-1.5,0-2.6-1.2-2.6-2.6v-53c0-1.5,1.2-2.6,2.6-2.6h86.5
		c1.5,0,2.6,1.2,2.6,2.6V266.2z"/>
	<path fill="none" stroke="#78797A" stroke-width="3.5" stroke-miterlimit="10" d="M435.9,266.2c0,1.5-1.2,2.6-2.6,2.6h-86.5
		c-1.5,0-2.6-1.2-2.6-2.6v-53c0-1.5,1.2-2.6,2.6-2.6h86.5c1.5,0,2.6,1.2,2.6,2.6V266.2z"/>
</g>
<g>
	
		<linearGradient id="SVGID_1_" gradientUnits="userSpaceOnUse" x1="325.3" y1="336.1" x2="325.3" y2="274.2" gradientTransform="matrix(0.9407 0 0 -0.9407 84.0114 526.7932)">
		<stop  offset="0" style="stop-color:#FFFFFF"/>
		<stop  offset="1" style="stop-color:#FFFFFF"/>
	</linearGradient>
	<path fill="url(#SVGID_1_)" d="M435.9,266.2c0,1.5-1.2,2.6-2.6,2.6h-86.5c-1.5,0-2.6-1.2-2.6-2.6v-53c0-1.5,1.2-2.6,2.6-2.6h86.5
		c1.5,0,2.6,1.2,2.6,2.6V266.2z"/>
	<path fill="none" stroke="#797979" stroke-width="0.5" stroke-miterlimit="10" d="M435.9,266.2c0,1.5-1.2,2.6-2.6,2.6h-86.5
		c-1.5,0-2.6-1.2-2.6-2.6v-53c0-1.5,1.2-2.6,2.6-2.6h86.5c1.5,0,2.6,1.2,2.6,2.6V266.2z"/>
</g>
<g>
	
		<linearGradient id="SVGID_2_" gradientUnits="userSpaceOnUse" x1="325.5" y1="333.9" x2="325.5" y2="275.8209" gradientTransform="matrix(0.9407 0 0 -0.9407 84.0114 526.7932)">
		<stop  offset="0" style="stop-color:#FFFFFF"/>
		<stop  offset="1" style="stop-color:#F2F2F2"/>
	</linearGradient>
	<path fill="url(#SVGID_2_)" d="M434.4,264.6c0,1.5-1.2,2.6-2.6,2.6h-83.2c-1.5,0-2.6-1.2-2.6-2.6v-49.3c0-1.5,1.2-2.6,2.6-2.6h83.2
		c1.5,0,2.6,1.2,2.6,2.6V264.6z"/>
</g>
<g>
	<rect x="348.7" y="236.2" fill="#FFFFFF" width="75.4" height="24"/>
	<rect x="348.7" y="236.2" fill="none" stroke="#EBEBEC" stroke-miterlimit="10" width="75.4" height="24"/>
</g>
<rect x="350.9" y="245.1" fill="#CCCCCC" width="70.2" height="0.6"/>
<rect x="350.9" y="252.5" fill="#CCCCCC" width="70.2" height="0.6"/>
<rect x="349.7" y="217.2" fill="none" width="64.3" height="6"/>
<text transform="matrix(1 0 0 1 349.6441 221.8892)" fill="#5E5F5F" font-family="'HelveticaNeue-Medium'" font-size="6.5849">CHEQUE</text>
<rect x="403.8" y="220.5" fill="none" width="20.5" height="2.3"/>
<text transform="matrix(1 0 0 1 418.5284 222.5537)" fill="#999B9E" font-family="'HelveticaNeue-Light'" font-size="2.8221">Date</text>
<rect x="349.7" y="228.4" fill="none" width="20.5" height="2.3"/>
<text transform="matrix(1 0 0 1 349.6431 230.3838)" fill="#5E5F5F" font-family="'HelveticaNeue-Light'" font-size="2.8221">Business name</text>
<rect x="350.9" y="241.9" fill="none" width="70.2" height="2.9"/>
<text transform="matrix(1 0 0 1 350.9219 243.8296)" fill="#5E5F5F" font-family="'HelveticaNeue-Light'" font-size="2.8221">Payable for: One hundred dollars only</text>
<rect x="403.8" y="228.4" fill="none" width="20.5" height="2.3"/>
<text transform="matrix(1 0 0 1 417.9497 230.3838)" fill="#5E5F5F" font-family="'HelveticaNeue-Light'" font-size="2.8221">$100</text>
<rect x="368.9" y="244.6" transform="matrix(-0.5364 0.844 -0.844 -0.5364 793.7995 53.3793)" fill="#E7E6E6" width="26.6" height="0.3"/>
<rect x="378.9" y="251" transform="matrix(-0.5364 0.844 -0.844 -0.5364 814.616 54.7965)" fill="#E7E6E6" width="26.6" height="0.3"/>
</svg>
