<?xml version="1.0" encoding="UTF-8" standalone="no"?>
<!-- Generator: Adobe Illustrator 17.0.0, SVG Export Plug-In . SVG Version: 6.00 Build 0)  -->

<svg
   xmlns:dc="http://purl.org/dc/elements/1.1/"
   xmlns:cc="http://creativecommons.org/ns#"
   xmlns:rdf="http://www.w3.org/1999/02/22-rdf-syntax-ns#"
   xmlns:svg="http://www.w3.org/2000/svg"
   xmlns="http://www.w3.org/2000/svg"
   xmlns:sodipodi="http://sodipodi.sourceforge.net/DTD/sodipodi-0.dtd"
   xmlns:inkscape="http://www.inkscape.org/namespaces/inkscape"
   version="1.1"
   x="0px"
   y="0px"
   width="36.299999"
   height="32.009998"
   viewBox="0 0 36.300002 32.01"
   xml:space="preserve"
   id="svg2"
   inkscape:version="0.48.4 r9939"
   sodipodi:docname="rm-refresh.svg"><metadata
   id="metadata14"><rdf:RDF><cc:Work
       rdf:about=""><dc:format>image/svg+xml</dc:format><dc:type
         rdf:resource="http://purl.org/dc/dcmitype/StillImage" /></cc:Work></rdf:RDF></metadata><defs
   id="defs12">
	
		
	
</defs><sodipodi:namedview
   pagecolor="#0c0c0c"
   bordercolor="#666666"
   borderopacity="1"
   objecttolerance="10"
   gridtolerance="10"
   guidetolerance="10"
   inkscape:pageopacity="0"
   inkscape:pageshadow="2"
   inkscape:window-width="1379"
   inkscape:window-height="947"
   id="namedview10"
   showgrid="false"
   fit-margin-top="0"
   fit-margin-left="0"
   fit-margin-right="0"
   fit-margin-bottom="0"
   inkscape:zoom="7.4479994"
   inkscape:cx="18.083045"
   inkscape:cy="15.998486"
   inkscape:window-x="2100"
   inkscape:window-y="49"
   inkscape:window-maximized="0"
   inkscape:current-layer="svg2" />
<polygon
   style="fill:none;stroke:#ffffff;stroke-width:4.00032091;stroke-linecap:round;stroke-linejoin:miter;stroke-miterlimit:10;stroke-dasharray:none"
   id="polygon5"
   points="24.01,16.01 36.01,16.01 30.01,22.01 "
   stroke-miterlimit="10"
   transform="matrix(0.56309996,0,0,0.56394357,13.000079,8.0223496)" /><path
   style="fill:#ffffff;fill-rule:evenodd"
   inkscape:connector-curvature="0"
   id="path7"
   d="m 0,16.010016 c 0,8.84 7.16,16 16,16 5.19,0 9.8,-2.46 12.72,-6.29 l -2.86,-2.86 c -2.17,3.11 -5.78,5.15 -9.86,5.15 -6.63,0 -12,-5.37 -12,-12 C 4,9.3800134 9.37,4.0000134 16,4.0000134 c 6.63,0 12.01,5.38 12.01,12.0100026 0,0.92 -0.11,1.83 -0.31,2.69 l 3.501614,1.98806 c 0.72,-1.82 0.808386,-2.60806 0.808386,-4.67806 C 32.01,7.1700134 24.84,1.3240551e-5 16,1.3240551e-5 7.16,1.3240551e-5 0,7.1700134 0,16.010016 z"
   sodipodi:nodetypes="ssccssssccsss" />
<g
   id="Layer_1"
   transform="translate(0,1.3240551e-5)">
</g>
</svg>