<?xml version="1.0" encoding="utf-8"?>
<!-- Generator: Adobe Illustrator 17.0.0, SVG Export Plug-In . SVG Version: 6.00 Build 0)  -->
<!DOCTYPE svg PUBLIC "-//W3C//DTD SVG 1.1 Tiny//EN" "http://www.w3.org/Graphics/SVG/1.1/DTD/svg11-tiny.dtd">
<svg version="1.1" baseProfile="tiny" id="Layer_1" xmlns="http://www.w3.org/2000/svg" xmlns:xlink="http://www.w3.org/1999/xlink"
	 x="0px" y="0px" width="22.256px" height="22.255px" viewBox="0 0 22.256 22.255" xml:space="preserve">
<circle fill="#FFFFFF" stroke="#DCDCDC" stroke-width="1.1936" cx="11.128" cy="11.128" r="10.531"/>
<path fill="#DCDCDC" d="M15.461,7.476H6.782c-0.473,0-0.858,0.383-0.858,0.856v5.601c0,0.472,0.385,0.856,0.858,0.856h8.679
	c0.473,0,0.857-0.384,0.857-0.856l0,0V8.332C16.317,7.859,15.933,7.476,15.461,7.476z M6.782,7.996h8.679
	c0.186,0,0.335,0.152,0.336,0.335v0.697H6.444V8.332C6.446,8.148,6.596,7.996,6.782,7.996z M15.461,14.267H6.782
	c-0.186,0-0.335-0.149-0.338-0.335v-3.089h9.353v3.089C15.795,14.118,15.646,14.267,15.461,14.267z"/>
</svg>
