<?xml version="1.0" encoding="utf-8"?>
<!-- Generator: Adobe Illustrator 17.0.0, SVG Export Plug-In . SVG Version: 6.00 Build 0)  -->
<!DOCTYPE svg PUBLIC "-//W3C//DTD SVG 1.1 Tiny//EN" "http://www.w3.org/Graphics/SVG/1.1/DTD/svg11-tiny.dtd">
<svg version="1.1" baseProfile="tiny" id="Layer_1" xmlns="http://www.w3.org/2000/svg" xmlns:xlink="http://www.w3.org/1999/xlink"
	 x="0px" y="0px" width="22.256px" height="22.256px" viewBox="0 0 22.256 22.256" xml:space="preserve">
<circle fill="#ED1C24" stroke="#FFFFFF" stroke-width="1.1936" cx="11.128" cy="11.128" r="10.531"/>
<path fill="#FFFFFF" d="M11.128,5.58c-3.127,0-5.67,2.544-5.67,5.671c0,3.126,2.544,5.67,5.67,5.67c3.126,0,5.67-2.543,5.67-5.67
	C16.799,8.125,14.255,5.58,11.128,5.58 M11.128,15.839c-2.534,0-4.588-2.054-4.588-4.588c0-2.535,2.054-4.588,4.588-4.588
	c2.534,0,4.588,2.053,4.588,4.588C15.716,13.785,13.662,15.839,11.128,15.839"/>
<path fill="#FFFFFF" d="M11.087,6.11c0.772,0,1.848,1.909,1.848,5.018c0,3.107-1.076,5.016-1.848,5.016
	c-0.772,0-1.848-1.908-1.848-5.016C9.239,8.02,10.316,6.11,11.087,6.11 M11.087,5.583c-1.313,0-2.376,2.482-2.376,5.545
	c0,3.062,1.064,5.545,2.376,5.545s2.377-2.483,2.377-5.545C13.464,8.066,12.4,5.583,11.087,5.583"/>
<path fill="#FFFFFF" d="M11.005,9.279c3.108,0,5.017,1.077,5.017,1.849c0,0.772-1.909,1.848-5.017,1.848s-5.017-1.076-5.017-1.848
	C5.988,10.356,7.897,9.279,11.005,9.279 M11.005,8.751c-3.062,0-5.545,1.064-5.545,2.377s2.483,2.376,5.545,2.376
	s5.545-1.064,5.545-2.376S14.067,8.751,11.005,8.751"/>
</svg>
