<?xml version="1.0" encoding="utf-8"?>
<!-- Generator: Adobe Illustrator 17.0.0, SVG Export Plug-In . SVG Version: 6.00 Build 0)  -->
<!DOCTYPE svg PUBLIC "-//W3C//DTD SVG 1.1 Tiny//EN" "http://www.w3.org/Graphics/SVG/1.1/DTD/svg11-tiny.dtd">
<svg version="1.1" baseProfile="tiny" id="Layer_1" xmlns="http://www.w3.org/2000/svg" xmlns:xlink="http://www.w3.org/1999/xlink"
	 x="0px" y="0px" width="66.582px" height="66.583px" viewBox="0 0 66.582 66.583" xml:space="preserve">
<circle fill="#26ABE2" stroke="#1D7BC0" stroke-width="5" cx="33.291" cy="33.291" r="30.791"/>
<path fill-rule="evenodd" fill="#FFFFFF" d="M40.978,18.514c0,1.135-0.433,2.107-1.3,2.916c-0.865,0.799-1.905,1.202-3.128,1.202
	c-1.222,0-2.261-0.403-3.138-1.202c-0.876-0.809-1.308-1.781-1.308-2.916c0-1.146,0.432-2.118,1.308-2.937
	c0.877-0.808,1.916-1.212,3.138-1.212c1.223,0,2.263,0.404,3.128,1.212C40.545,16.396,40.978,17.367,40.978,18.514z M40.468,46.059
	l-0.5,2.031c-1.483,0.586-2.677,1.029-3.562,1.337c-0.886,0.308-1.916,0.462-3.08,0.462c-1.81,0-3.205-0.442-4.206-1.318
	s-1.501-2.002-1.501-3.35c0-0.529,0.037-1.068,0.114-1.617c0.077-0.548,0.194-1.164,0.367-1.856l1.856-6.593
	c0.164-0.626,0.309-1.223,0.414-1.791c0.115-0.567,0.173-1.078,0.173-1.549c0-0.838-0.173-1.425-0.518-1.752
	c-0.347-0.337-1.012-0.5-1.983-0.5c-0.482,0-0.972,0.076-1.482,0.221c-0.501,0.154-0.934,0.289-1.29,0.424l0.491-2.031
	c1.222-0.49,2.387-0.914,3.503-1.27c1.116-0.356,2.166-0.53,3.157-0.53c1.799,0,3.175,0.433,4.147,1.3
	c0.973,0.855,1.453,1.982,1.453,3.368c0,0.289-0.028,0.789-0.096,1.511c-0.067,0.723-0.192,1.387-0.375,1.982l-1.848,6.574
	c-0.154,0.52-0.29,1.126-0.415,1.8c-0.115,0.674-0.174,1.193-0.174,1.53c0,0.876,0.194,1.473,0.578,1.79
	c0.385,0.308,1.06,0.472,2.023,0.472c0.441,0,0.952-0.076,1.52-0.23C39.804,46.309,40.208,46.174,40.468,46.059z"/>
</svg>
