<?xml version="1.0" encoding="utf-8"?>
<!-- Generator: Adobe Illustrator 17.1.0, SVG Export Plug-In . SVG Version: 6.00 Build 0)  -->
<!DOCTYPE svg PUBLIC "-//W3C//DTD SVG 1.1//EN" "http://www.w3.org/Graphics/SVG/1.1/DTD/svg11.dtd">
<svg version="1.1" id="Layer_1" xmlns="http://www.w3.org/2000/svg" xmlns:xlink="http://www.w3.org/1999/xlink" x="0px" y="0px"
	 viewBox="0 0 21.8 21.8" enable-background="new 0 0 21.8 21.8" xml:space="preserve">
<circle display="none" fill="#FFFFFF" stroke="#EF3B39" stroke-width="1.1936" cx="10.9" cy="10.9" r="10.5"/>
<path display="none" fill="#EF3B39" d="M15.2,7.3H6.6c-0.5,0-0.9,0.4-0.9,0.9v5.6c0,0.5,0.4,0.9,0.9,0.9h8.7c0.5,0,0.9-0.4,0.9-0.9
	l0,0V8.1C16.1,7.6,15.7,7.3,15.2,7.3z M6.6,7.8h8.7c0.2,0,0.3,0.2,0.3,0.3v0.7H6.2V8.1C6.2,7.9,6.4,7.8,6.6,7.8z M15.2,14.1H6.6
	c-0.2,0-0.3-0.1-0.3-0.3v-3.1h9.4v3.1C15.6,13.9,15.4,14.1,15.2,14.1z"/>
<g>
	<path fill="#969696" d="M13.1,14.1c-1.6,1.6-4.3,1.6-5.9,0c-1.6-1.6-1.6-4.3,0-5.9c1.6-1.6,4.3-1.6,5.9,0
		C14.7,9.8,14.7,12.5,13.1,14.1z M8.2,9.2c-1.1,1.1-1.1,2.8,0,3.8c1.1,1.1,2.8,1.1,3.8,0c1.1-1.1,1.1-2.8,0-3.8
		C11,8.2,9.3,8.2,8.2,9.2z"/>
</g>
<rect x="12.8" y="11.1" transform="matrix(0.7063 -0.7079 0.7079 0.7063 -5.6334 13.6231)" fill="#969696" width="1.7" height="4.9"/>
<circle fill="none" stroke="#969595" stroke-miterlimit="10" cx="10.9" cy="10.9" r="10.4"/>
</svg>
