<?xml version="1.0" encoding="utf-8"?>
<!-- Generator: Adobe Illustrator 17.0.0, SVG Export Plug-In . SVG Version: 6.00 Build 0)  -->
<!DOCTYPE svg PUBLIC "-//W3C//DTD SVG 1.1 Tiny//EN" "http://www.w3.org/Graphics/SVG/1.1/DTD/svg11-tiny.dtd">
<svg version="1.1" baseProfile="tiny" id="Layer_1" xmlns="http://www.w3.org/2000/svg" xmlns:xlink="http://www.w3.org/1999/xlink"
	 x="0px" y="0px" width="8.503px" height="7.845px" viewBox="0 0 8.503 7.845" xml:space="preserve">
<path fill="#646565" d="M8.466,2.602L7.413,1.548c-0.049-0.049-0.13-0.049-0.179,0L5.986,2.797V2.082L3.902,0H0.15
	C0.068,0,0,0.067,0,0.149v7.546c0,0.082,0.068,0.149,0.15,0.149h5.686c0.083,0,0.15-0.067,0.15-0.149V5.259l2.48-2.48
	C8.516,2.73,8.516,2.65,8.466,2.602z M5.747,7.605H0.24V0.239h3.56v1.789c0,0.086,0.071,0.156,0.157,0.156h1.789v0.853l-2.04,2.039
	c-0.009,0.009-0.015,0.02-0.02,0.03C3.573,5.193,3.483,5.314,3.45,5.443L3.182,6.513c0,0-0.001,0.003-0.001,0.006L3.076,6.935
	L4.142,6.67L4.141,6.669l0.425-0.106C4.696,6.531,4.818,6.44,4.91,6.325c0.01-0.005,0.021-0.01,0.027-0.019l0.81-0.809V7.605z
	 M4.626,6.173C4.584,6.214,4.535,6.247,4.49,6.259L3.88,6.411L3.601,6.133l0.153-0.613C3.767,5.475,3.8,5.428,3.841,5.387
	L4.626,6.173z"/>
</svg>
