<?xml version="1.0" encoding="utf-8"?>
<!-- Generator: Adobe Illustrator 17.0.0, SVG Export Plug-In . SVG Version: 6.00 Build 0)  -->
<!DOCTYPE svg PUBLIC "-//W3C//DTD SVG 1.1 Tiny//EN" "http://www.w3.org/Graphics/SVG/1.1/DTD/svg11-tiny.dtd">
<svg version="1.1" baseProfile="tiny" id="icons" xmlns="http://www.w3.org/2000/svg" xmlns:xlink="http://www.w3.org/1999/xlink"
	 x="0px" y="0px" width="8.947px" height="11.727px" viewBox="0 0 8.947 11.727" xml:space="preserve">
<path fill="#595959" d="M8.947,7.862v-3.68V3.112L5.834,0H0.223C0.101,0,0,0.1,0,0.223v11.282c0,0.122,0.101,0.223,0.223,0.223
	h8.501c0.123,0,0.224-0.101,0.224-0.223V7.862z M8.589,3.578V4.54v3.68v2.344v0.806H0.357V0.358h5.323v2.674
	c0,0.128,0.106,0.233,0.235,0.233h2.673V3.578z"/>
<rect x="1.213" y="4.732" fill="#999999" width="6.521" height="0.502"/>
<rect x="1.213" y="6.33" fill="#999999" width="6.521" height="0.502"/>
<rect x="1.213" y="7.928" fill="#999999" width="6.521" height="0.502"/>
</svg>
