<?xml version="1.0" encoding="utf-8"?>
<!-- Generator: Adobe Illustrator 17.0.0, SVG Export Plug-In . SVG Version: 6.00 Build 0)  -->
<!DOCTYPE svg PUBLIC "-//W3C//DTD SVG 1.1 Tiny//EN" "http://www.w3.org/Graphics/SVG/1.1/DTD/svg11-tiny.dtd">
<svg version="1.1" baseProfile="tiny" xmlns="http://www.w3.org/2000/svg" xmlns:xlink="http://www.w3.org/1999/xlink" x="0px"
	 y="0px" width="38.01px" height="32.01px" viewBox="0 0 38.01 32.01" xml:space="preserve">
<g id="Background">
	
		<polygon fill-rule="evenodd" fill="none" stroke="#FFFFFF" stroke-width="4.0009" stroke-linecap="round" stroke-linejoin="round" stroke-miterlimit="10" points="
		24.01,16.01 36.01,16.01 30.01,22.01 	"/>
	<path fill-rule="evenodd" fill="#FFFFFF" d="M0,16.01c0,8.84,7.16,16,16,16c5.19,0,9.8-2.46,12.72-6.29l-2.86-2.86
		c-2.17,3.11-5.78,5.15-9.86,5.15c-6.63,0-12-5.37-12-12S9.37,4,16,4s12.01,5.38,12.01,12.01c0,0.92-0.11,1.83-0.31,2.69l3.19,3.19
		c0.72-1.82,1.12-3.81,1.12-5.88C32.01,7.17,24.84,0,16,0S0,7.17,0,16.01z"/>
</g>
<g id="Layer_1">
</g>
</svg>
